<?xml version="1.0" encoding="iso-8859-1"?>
<!-- Uploaded to: SVG Repo, www.svgrepo.com, Generator: SVG Repo Mixer Tools -->
<svg fill="#808080" height="800px" width="800px" version="1.1" id="Layer_1" xmlns="http://www.w3.org/2000/svg" xmlns:xlink="http://www.w3.org/1999/xlink" 
	 viewBox="0 0 512 512" xml:space="preserve">
<g>
	<g>
		<path d="M507.109,71.673L440.327,4.891C437.196,1.76,432.951,0,428.522,0C425.038,0,53.485,0,50.087,0C22.469,0,0,22.469,0,50.087
			v411.826C0,489.531,22.469,512,50.087,512c15.731,0,396.124,0,411.826,0C489.531,512,512,489.531,512,461.913V83.478
			C512,79.049,510.24,74.804,507.109,71.673z M200.348,33.391h178.087v100.174H200.348V33.391z M133.565,33.391h33.391v100.174
			h-33.391V33.391z M378.435,478.609h-244.87v-33.391h244.87V478.609z M378.435,411.826h-244.87v-33.391h244.87V411.826z
			 M378.435,345.043h-244.87v-33.391h244.87V345.043z M478.609,461.913c0,9.206-7.49,16.696-16.696,16.696h-50.087V294.957
			c0-9.22-7.475-16.696-16.696-16.696H116.87c-9.22,0-16.696,7.475-16.696,16.696v183.652H50.087
			c-9.206,0-16.696-7.49-16.696-16.696V50.087c0-9.206,7.49-16.696,16.696-16.696h50.087v116.87c0,9.22,7.475,16.696,16.696,16.696
			H395.13c9.22,0,16.696-7.475,16.696-16.696V33.391h9.78l57.002,57.002V461.913z"/>
	</g>
</g>
</svg>